<?xml version="1.0" encoding="utf-8"?>
<!-- Generator: Adobe Illustrator 21.1.0, SVG Export Plug-In . SVG Version: 6.00 Build 0)  -->
<!DOCTYPE svg PUBLIC "-//W3C//DTD SVG 1.1//EN" "http://www.w3.org/Graphics/SVG/1.1/DTD/svg11.dtd">
<svg version="1.1" id="Laag_1" xmlns="http://www.w3.org/2000/svg" xmlns:xlink="http://www.w3.org/1999/xlink" x="0px" y="0px"
	 viewBox="0 0 1832 744" enable-background="new 0 0 1832 744" xml:space="preserve">
<path fill="#E94A3D" d="M371.1,728.3c195,0,353.1-158.1,353.1-353.1c0-195-158.1-353.1-353.1-353.1S17.9,180.1,17.9,375.1
	C17.9,570.2,176,728.3,371.1,728.3"/>
<g>
	<path d="M886.6,79.3c50.2,0,87.5,32.8,87.5,88.2c0,55.4-37.5,88.2-87.8,88.2H814V79.3H886.6z M850.3,224.6h36.6
		c30.7,0,51.2-19.1,51.2-57.1c0-38-20.3-57.1-51.2-57.1h-36.6V224.6z"/>
	<path d="M1032.6,205.7c0.7,15.1,9.9,24.8,25.5,24.8c12,0,19.8-5,22.4-13.4l34.7,1.7c-4.2,23.1-27.6,39.6-56.1,39.6
		c-37.3,0-63-24.3-63-63.5c0-39.4,25.7-63.5,62-63.5c35.1,0,58.3,22.6,58.3,60.6v13.7H1032.6z M1032.6,182.8h49.1
		c-0.7-14.9-8.3-24.5-23.8-24.5C1043.3,158.3,1033.6,167.3,1032.6,182.8z"/>
</g>
<g>
	<path d="M887.5,315.9c31.7,0,54.8,15.8,54.8,48.9c0,16.7-7.3,28-17.2,34.6c13.4,5.2,24.5,19,24.5,41.1c0,33.6-23.5,51.3-56.9,51.3
		h-78.8V315.9H887.5z M850.1,386.5h35c12.2,0,20.2-5.6,20.2-19s-8.9-19.5-22.1-19.5h-33.2V386.5z M850.1,459.6h38.3
		c14.1,0,24-6.1,24-20.9c0-15-10.1-21.4-23.5-21.4h-38.8V459.6z"/>
	<path d="M1017.1,330.5c0,11.3-9.2,20.5-20.7,20.5c-11.5,0-20.5-9.2-20.5-20.5c0-11.5,9.4-20.7,20.5-20.7
		C1007.9,309.8,1017.1,319,1017.1,330.5z M979.2,491.8V370.3h34.3v121.6H979.2z"/>
	<path d="M1082.2,503.6c0,30.6-20,49.8-50.3,49.8c-5.2,0-8.5-0.2-12-0.7v-29.9c2.1,0.5,4.5,0.7,8,0.7c11.8,0,20-7.5,20-19.3v-134
		h34.3V503.6z M1085.5,330.5c0,11.3-9.2,20.5-20.7,20.5c-11.5,0-20.5-9.2-20.5-20.5c0-11.5,8.9-20.7,20.5-20.7
		C1076.3,309.8,1085.5,319,1085.5,330.5z"/>
	<path d="M1116,491.8V309.1h34.3v182.7H1116z"/>
	<path d="M1302.7,431.1c0,38.1-27.5,63.2-64.7,63.2s-64.7-25.2-64.7-63.2c0-38.3,27.5-63.2,64.7-63.2S1302.7,392.8,1302.7,431.1z
		 M1208.2,431.1c0,21.2,12.2,33.6,29.9,33.6c17.6,0,29.9-12.5,29.9-33.6c0-21.4-12.2-33.9-29.9-33.9
		C1220.4,397.3,1208.2,409.8,1208.2,431.1z"/>
	<path d="M1403.6,370.3h41.6l-45.8,52l49.1,69.6h-41.6l-31.7-44l-10.8,11.8v32.2H1330V309.1h34.3v104.4L1403.6,370.3z"/>
	<path d="M1495.3,442c0.7,15,9.9,24.7,25.4,24.7c12,0,19.8-4.9,22.3-13.4l34.6,1.6c-4.2,23-27.5,39.5-56,39.5
		c-37.1,0-62.8-24.2-62.8-63.2c0-39.3,25.6-63.2,61.8-63.2c35,0,58.1,22.6,58.1,60.4V442H1495.3z M1495.3,419.2h48.9
		c-0.7-14.8-8.2-24.5-23.7-24.5C1505.9,394.7,1496.2,403.6,1495.3,419.2z"/>
</g>
<g>
	<g>
		<path d="M914.7,669.4v-85.8l-44.2,85.4H865l-44.5-85.4v85.8h-8.3V564.5h7l48.4,92.3l48.2-92.3h7v104.9H914.7z"/>
		<path d="M995.6,669.4v-12.1c-2.7,6-10,13.3-22.6,13.3c-15.8,0-25.9-11.5-25.9-28.2v-44h7.7v43c0,13,7.3,21.7,19.6,21.7
			c13,0,20.8-10.5,20.8-22.2v-42.6h7.9v71H995.6z"/>
		<path d="M1028.4,662.9h44.2v6.5H1019V664l42.3-59.2H1020v-6.5h50.6v5.2L1028.4,662.9z"/>
		<path d="M1098.1,571.5c0,3.1-2.7,5.7-5.9,5.7s-5.7-2.7-5.7-5.7c0-3.2,2.7-5.9,5.7-5.9C1095.4,565.6,1098.1,568.2,1098.1,571.5z
			 M1088.3,669.4v-71h7.9v71H1088.3z"/>
		<path d="M1124,636.8c0.4,17.1,11.5,26.9,25.9,26.9c12.3,0,20.8-5.7,23.4-15.6l7.9,0.6c-3.2,13-14.7,21.9-31,21.9
			c-19.6,0-34.5-13.5-34.5-36.7c0-23.3,14.6-36.7,34.2-36.7c20.3,0,32,14,32,34.6v5H1124z M1124,630.2h50.2
			c0-15.1-8.3-26.1-24.4-26.1C1135.5,604.1,1124.6,613.3,1124,630.2z"/>
		<path d="M1244.8,598.4h10l-31.7,31.1l35.6,39.8h-10.4l-30.9-34.2l-8.1,8v26.2h-7.9v-109h7.9v72.2L1244.8,598.4z"/>
		<path d="M1329.2,623.2l-7.7,0.7c-1.4-12.5-10.9-19.9-23.4-19.9c-15,0-26.1,10.7-26.1,29.9c0,19.2,11.4,29.9,26.2,29.9
			c12.9,0,21.6-7,23.4-18.4l7.7,0.6c-2.7,15.3-14.3,24.7-31.1,24.7c-19.5,0-34.2-13.3-34.2-36.7s14.6-36.7,34.1-36.7
			C1314.6,597.1,1327.2,607.1,1329.2,623.2z"/>
		<path d="M1350.1,636.8c0.4,17.1,11.5,26.9,25.9,26.9c12.3,0,20.8-5.7,23.4-15.6l7.9,0.6c-3.2,13-14.7,21.9-31,21.9
			c-19.6,0-34.5-13.5-34.5-36.7c0-23.3,14.6-36.7,34.2-36.7c20.3,0,32,14,32,34.6v5H1350.1z M1350.1,630.2h50.2
			c0-15.1-8.3-26.1-24.4-26.1C1361.6,604.1,1350.6,613.3,1350.1,630.2z"/>
		<path d="M1486,625.7v43.6h-7.9v-42.6c0-13.3-8.6-22.3-20.8-22.3c-13,0-22,10.4-22,22.3v42.6h-7.9v-71h7.6v12.1
			c3.1-6.6,11.2-13.3,23.6-13.3C1474.5,597.1,1486,608.5,1486,625.7z"/>
		<path d="M1539.5,662.2v7.2c-2.1,0.4-4.9,0.7-9,0.7c-11.6,0-19.8-6.2-19.8-21.5l0.1-43.3h-13.5v-6.9h13.5l0.1-25.1h8l-0.1,25.1
			h20.3v6.9h-20.3l-0.3,41.9c0,11.6,5.8,15.7,13.5,15.7C1535.2,662.9,1537.7,662.5,1539.5,662.2z"/>
		<path d="M1583,605c-13.2,0-21.3,9.7-21.3,21.2v43.2h-7.9v-71h7.6V610c2.4-6.2,9.5-12.6,21.6-12.6V605z"/>
		<path d="M1648.9,669.4v-12.1c-2.7,6-10,13.3-22.6,13.3c-15.8,0-25.9-11.5-25.9-28.2v-44h7.7v43c0,13,7.3,21.7,19.6,21.7
			c13,0,20.8-10.5,20.8-22.2v-42.6h7.9v71H1648.9z"/>
		<path d="M1786,625.6v43.8h-7.9v-42.6c0-13.3-7.7-22.3-19.9-22.3c-13,0-21,10.4-21,22.3v42.6h-8v-42.6c0-13.3-7.9-22.3-19.6-22.3
			c-13,0-21.2,10.4-21.2,22.3v42.6h-7.9v-71h7.4v12.2c3.1-6.7,10.8-13.5,22.9-13.5c11.2,0,19.9,5.9,24,15.4c4.1-9,13-15.4,24.7-15.4
			C1775.2,597.1,1786,608.8,1786,625.6z"/>
	</g>
</g>
</svg>
